<svg id="Layer_1" data-name="Layer 1" xmlns="http://www.w3.org/2000/svg" viewBox="0 0 210.24 201.94"><defs><style>.cls-1{fill:#94c53f;}</style></defs><path class="cls-1" d="M197.29,59c7.48-2.48,18-18.72,10.21-30.77s-15.31-14.13-27.63-11.41-13,3.84-18.15-2.92S148.43-1.76,141.2.31c0,0-23,2.31-20.8,27,1.94,21.49-8.13,29.48-15.63,31.25C99.54,57,90.34,53,90,44.65c-.51-11.73,3.57-35.19-11.23-40.8s-25-1-33.15,11.73c0,0-4.06,6.54-10,1.31S10.44,10.67,3.9,23.43-.69,43.75,7.82,53.07s9.82,9.32,6.55,17.17S7.49,89.56,12.9,94.79c0,0,13.51,18.77,33.78,4.51,19.86-14,32.49-6.25,36.53,0,.94,5.53,1,13.52-5.12,17.43-9.9,6.31-32.27,14.5-29.73,30.12S60,169,75.1,169.73c0,0,7.7.24,6.11,8s7.22,24.94,21.54,24.23,19.89-6.19,23.7-18.22,3.16-13.17,11.6-14.26,20.18-3.7,22-11c0,0,9.5-21.09-13-31.51-20.71-9.6-21.62-23.26-18.81-30.38,4.3-3.61,11.29-7.83,17.83-4.42,10.41,5.42,28.69,20.69,40.95,10.68s13.38-21.13,6.42-34.58C193.45,68.23,189.81,61.44,197.29,59Zm-93,7.11L104.9,65l.58,1.08c-.29,0-.58,0-.88,0Z"/></svg>