<svg id="Layer_1" data-name="Layer 1" xmlns="http://www.w3.org/2000/svg" viewBox="0 0 602.89 233.32"><defs><style>.cls-1{fill:#0f6b37;}</style></defs><path class="cls-1" d="M185.5,233.32s36.52-34.53,90.35-39,252,60.76,302.26,10.06c0,0,38.69-30,19.38-79.37l-3.19,2.41S612,207,511.48,205.33s-139.14-42-206.33-47-150.33,14.18-175.53,50.34C129.62,208.65,161.6,199.15,185.5,233.32Z"/><path class="cls-1" d="M45.47,0S-7.77,38.11,1,99.43s45,87.48,96.91,90.32,101.69-49.27,91.23-111.88c0,0-2.36-19.22-18.47-41.25L169.53,48.5s13.13,13.47,13,46.43-32.67,72.38-84.13,62.9S26.27,92.1,66.59,53.18c0,0,33.29-28.87,77.21.29L176.31,0Z"/><path class="cls-1" d="M225.76,144.12H198.14V59.37l-7-1.12V46.75h20.25q4.25,0,5.81,1.5t1.56,5.62V131.5l7,1.12Z"/><path class="cls-1" d="M297.51,132.62v11.5H276.39l-2.63-5.37a34.29,34.29,0,0,1-21,7.12q-14,0-22.56-8.87t-8.56-24.63q0-15.5,9.31-24.94T254.64,78A34.49,34.49,0,0,1,263,79a24.35,24.35,0,0,1,6.94,2.75V59.37l-7-1.12V46.75h20.25q4.25,0,5.81,1.5t1.56,5.62V131.5ZM269.89,96.35a20,20,0,0,0-5.38-2.67,18.87,18.87,0,0,0-6.12-1.06q-7.5,0-11.5,5.09t-4,14.29q0,9.06,4,14.15t11.5,5.1a18.78,18.78,0,0,0,6-1,21.25,21.25,0,0,0,5.5-2.73Z"/><path class="cls-1" d="M320.76,121a51.31,51.31,0,0,0,13.32,8.06,36.28,36.28,0,0,0,13.68,2.81q7.64,0,11.63-3a9.79,9.79,0,0,0,4-8.38,10.78,10.78,0,0,0-3.94-8.19q-3.93-3.56-18.19-8.44T321.08,92.64a22.24,22.24,0,0,1-5.94-15.76A21.69,21.69,0,0,1,325,58.06q9.81-6.81,27.56-6.81a71.32,71.32,0,0,1,16.07,1.88,73.47,73.47,0,0,1,15.06,5.15l-9.23,16.09a33.18,33.18,0,0,0-10.22-6.69,30.33,30.33,0,0,0-12-2.56q-6.87,0-10.73,2.78a9,9,0,0,0-3.86,7.72,11.22,11.22,0,0,0,4.3,8.81q4.31,3.69,18.83,8.69t20.07,11.19a21.57,21.57,0,0,1,5.55,14.94q0,12.38-10.31,19.62t-28.94,7.25a69.7,69.7,0,0,1-19.13-2.7,49.87,49.87,0,0,1-15.87-7.35Z"/><path class="cls-1" d="M397.89,170.62q-4.25,0-5.81-1.5t-1.57-5.62V92.37l-7-1.12V79.75h21.13l2.62,5.37a33.52,33.52,0,0,1,21-7.12q14,0,22.57,8.87t8.56,24.63q0,15.5-9.31,24.93t-23.69,9.44a30,30,0,0,1-15.25-3.75V158l7,1.12v11.5Zm13.25-43.1a20.25,20.25,0,0,0,11.5,3.73q7.5,0,11.5-5.1t4-14.28q0-9.06-4-14.16t-11.5-5.09a19.78,19.78,0,0,0-11.5,3.73Z"/><path class="cls-1" d="M488.64,144.12H461V92.37l-7-1.12V79.75h20.25c2.84,0,4.77.5,5.82,1.5s1.56,2.87,1.56,5.62V131.5l7,1.12Zm-7-71.37H461V54.5h20.63Z"/><path class="cls-1" d="M545.51,135.31a30.22,30.22,0,0,1-11.68,7.7,41.3,41.3,0,0,1-15.19,2.86q-16.12,0-25.13-8.81t-9-24.69q0-15.75,9.94-25.06T521,78a55.69,55.69,0,0,1,12.13,1.36A41.91,41.91,0,0,1,543.51,83l-9.12,15.65A16.69,16.69,0,0,0,528,94,20,20,0,0,0,520,92.25a12.28,12.28,0,0,0-10.5,5.09q-3.75,5.1-3.75,14.66T510,126.65q4.19,5,12.44,5a24.48,24.48,0,0,0,8.81-1.75,29.42,29.42,0,0,0,8.31-4.87Z"/><path class="cls-1" d="M602.76,134.12a37.55,37.55,0,0,1-13.37,8.56,46.07,46.07,0,0,1-17,3.19q-16.38,0-25.5-8.62t-9.13-24.63q0-15.75,9.75-25.19t26-9.43q12.75,0,20.63,5.75T602,98.62a16.88,16.88,0,0,1-4.7,12.31q-4.71,4.81-14.23,7.19T559,120.5a15.08,15.08,0,0,0,6,8.72q4.18,2.78,11.09,2.78a35.5,35.5,0,0,0,11-1.72,40.35,40.35,0,0,0,10.4-5.28ZM572.09,91.87a11.87,11.87,0,0,0-9.43,4.44q-3.76,4.44-4.52,12.06a74.94,74.94,0,0,0,12.88-.89q5-.89,7.35-2.92a7.14,7.14,0,0,0,0-10.66A9.39,9.39,0,0,0,572.09,91.87Z"/><path class="cls-1" d="M522.11,18.93c1.88-.62,4.52-4.71,2.56-7.74s-3.85-3.55-6.95-2.87-3.26,1-4.56-.73S509.81,3.66,508,4.18A5.9,5.9,0,0,0,502.76,11c.49,5.41-2,7.42-3.93,7.86-1.32-.39-3.63-1.39-3.72-3.49-.13-3,.9-8.86-2.83-10.27S486,4.81,483.94,8a1.56,1.56,0,0,1-2.5.33C480,7,475.1,6.78,473.45,10s-1.15,5.11,1,7.45,2.47,2.35,1.65,4.32-1.73,4.86-.37,6.18a5.91,5.91,0,0,0,8.5,1.13c5-3.51,8.17-1.57,9.18,0,.24,1.39.26,3.4-1.28,4.39-2.49,1.58-8.12,3.64-7.48,7.57s2.92,5.58,6.72,5.75a1.57,1.57,0,0,1,1.54,2c-.4,1.94,1.82,6.27,5.42,6.09s5-1.56,6-4.58.8-3.32,2.92-3.59,5.08-.93,5.54-2.77A5.91,5.91,0,0,0,509.47,36c-5.21-2.41-5.44-5.85-4.73-7.64,1.08-.91,2.84-2,4.48-1.11,2.62,1.36,7.22,5.2,10.3,2.69s3.37-5.32,1.62-8.7A1.57,1.57,0,0,1,522.11,18.93ZM498.7,20.72l.16-.26.15.27h-.31Z"/></svg>