<svg id="Layer_1" data-name="Layer 1" xmlns="http://www.w3.org/2000/svg" viewBox="0 0 200 77.36"><defs><style>.cls-1{fill:#fff;}</style></defs><path class="cls-1" d="M15.1,0S-2.56,12.62.32,33s14.91,29,32.16,30S66.22,46.59,62.76,25.83c0,0-.76-6.38-6.11-13.7l-.36,3.95s4.36,4.49,4.31,15.41-10.82,24-27.89,20.85S8.72,30.55,22.1,17.65c0,0,11.06-9.56,25.61.09L58.49,0Z"/><path class="cls-1" d="M74.89,47.8H65.72V19.68l-2.33-.36V15.5h6.74a3,3,0,0,1,1.93.49,2.53,2.53,0,0,1,.49,1.89V43.62l2.34.36V47.8Z"/><path class="cls-1" d="M98.7,44V47.8h-7L90.84,46a11.07,11.07,0,0,1-3.24,1.75,11.64,11.64,0,0,1-3.73.63,9.93,9.93,0,0,1-7.5-3c-1.89-2-2.83-4.67-2.83-8.13A11.21,11.21,0,0,1,76.64,29a10.65,10.65,0,0,1,7.86-3.14,11.35,11.35,0,0,1,2.74.31,8.1,8.1,0,0,1,2.29.9V19.68l-2.33-.36V15.5h6.74a3,3,0,0,1,1.93.49,2.53,2.53,0,0,1,.49,1.89V43.62ZM89.53,32a7,7,0,0,0-3.81-1.26,4.6,4.6,0,0,0-3.82,1.7,7.44,7.44,0,0,0-1.31,4.77,7.58,7.58,0,0,0,1.31,4.71,4.58,4.58,0,0,0,3.82,1.71,7.24,7.24,0,0,0,2-.31,8,8,0,0,0,1.84-.9Z"/><path class="cls-1" d="M106.43,40.12a17.69,17.69,0,0,0,4.4,2.69,11.94,11.94,0,0,0,4.54.95,6.33,6.33,0,0,0,3.86-1A3.27,3.27,0,0,0,120.58,40a3.49,3.49,0,0,0-1.35-2.74c-.85-.76-2.88-1.71-6-2.78s-5.39-2.34-6.69-3.78a7.42,7.42,0,0,1-2-5.21,7.12,7.12,0,0,1,3.28-6.24C110,17.74,113,17,117,17a24.07,24.07,0,0,1,5.35.63,24.69,24.69,0,0,1,5,1.66l-3,5.35a11.73,11.73,0,0,0-3.37-2.2,10.06,10.06,0,0,0-4-.86,6.2,6.2,0,0,0-3.55.9,3.05,3.05,0,0,0-1.3,2.56,3.75,3.75,0,0,0,1.43,2.92c1,.81,3.06,1.8,6.25,2.88s5.43,2.33,6.65,3.73a7.13,7.13,0,0,1,1.84,4.94A7.6,7.6,0,0,1,124.84,46c-2.29,1.62-5.48,2.43-9.61,2.38a22.89,22.89,0,0,1-6.33-.9,16,16,0,0,1-5.26-2.42Z"/><path class="cls-1" d="M132,56.6a2.93,2.93,0,0,1-1.93-.49,2.51,2.51,0,0,1-.5-1.89V30.64l-2.34-.36V26.46h7l.86,1.8a11.09,11.09,0,0,1,7-2.38,10,10,0,0,1,7.5,3c1.89,2,2.83,4.67,2.83,8.18a11.19,11.19,0,0,1-3.1,8.26,10.64,10.64,0,0,1-7.86,3.15,10.26,10.26,0,0,1-5.08-1.26v5.26l2.34.35v3.78H132Zm4.4-14.28a6.84,6.84,0,0,0,3.82,1.26A4.62,4.62,0,0,0,144,41.87a7.47,7.47,0,0,0,1.34-4.76A7.32,7.32,0,0,0,144,32.43a4.62,4.62,0,0,0-3.82-1.7A6.57,6.57,0,0,0,136.39,32Z"/><path class="cls-1" d="M162.09,47.8h-9.17V30.64l-2.33-.36V26.46h6.73a3,3,0,0,1,1.94.49,2.57,2.57,0,0,1,.49,1.89V43.62l2.34.36Z"/><path class="cls-1" d="M181,44.88a10.21,10.21,0,0,1-3.86,2.56,13.85,13.85,0,0,1-5,.94c-3.55,0-6.34-1-8.31-2.92s-3-4.67-3-8.17A10.85,10.85,0,0,1,164,29a12.29,12.29,0,0,1,8.8-3.1,17.46,17.46,0,0,1,4.05.45,11.83,11.83,0,0,1,3.45,1.21l-3,5.21a5.34,5.34,0,0,0-2.15-1.53,6.53,6.53,0,0,0-2.65-.58,4.13,4.13,0,0,0-3.51,1.7,8.33,8.33,0,0,0-1.25,4.86,7.36,7.36,0,0,0,1.39,4.85,5.16,5.16,0,0,0,4.13,1.66,8.21,8.21,0,0,0,2.92-.58,10.77,10.77,0,0,0,2.74-1.62Z"/><path class="cls-1" d="M162.27,17.79a1.33,1.33,0,0,0,1-1.62,1.29,1.29,0,0,0-1.43-1c-.77,0-.81,0-1-.41s-.54-1.07-1-1.07a1.44,1.44,0,0,0-1.57,1.21V15c-.18,1.26-.86,1.57-1.31,1.57-.27-.18-.76-.54-.67-1,.14-.67.67-2-.09-2.51a1.45,1.45,0,0,0-2.07.22.41.41,0,0,1-.54.05l-.08-.09a1.35,1.35,0,0,0-1.94-.05,1.32,1.32,0,0,0-.18,1.75c.36.68.45.68.14,1.08s-.68,1-.41,1.4a1.46,1.46,0,0,0,1.85.76s0,0,0,0c1.35-.53,2,.09,2.11.5a.93.93,0,0,1-.54.94c-.67.23-2.06.41-2.11,1.35a1.44,1.44,0,0,0,1.21,1.66A.38.38,0,0,1,154,23c0,.05,0,.09,0,.09a1.45,1.45,0,0,0,.9,1.71,1.31,1.31,0,0,0,1.62-.72c.4-.63.35-.72.85-.67s1.21,0,1.39-.32a1.36,1.36,0,0,0-.27-1.93l0-.05c-1.08-.8-1-1.61-.68-2a1,1,0,0,1,1.08,0c.54.45,1.35,1.57,2.2,1.17a1.44,1.44,0,0,0,.86-1.89.37.37,0,0,1,.18-.49C162.18,17.79,162.22,17.79,162.27,17.79Zm3.18-10.92.05-.09,0,.09Z"/><path class="cls-1" d="M199.33,45h0v0c-.27-1-.54-2-.9-3-.05-.18-.14-.31-.18-.49l-.05,0a13.72,13.72,0,0,1-3.37,1.71,11,11,0,0,1-3.63.59,6.3,6.3,0,0,1-3.69-.9,4.91,4.91,0,0,1-2-2.92,34.74,34.74,0,0,0,8-.81,9.7,9.7,0,0,0,4.72-2.38,6,6,0,0,0-1-9,11.39,11.39,0,0,0-6.83-1.89A11.76,11.76,0,0,0,181.76,29a11.17,11.17,0,0,0-3.23,8.35c0,3.55,1,6.25,3,8.18s4.85,2.87,8.44,2.87a15.23,15.23,0,0,0,5.66-1.08,10.44,10.44,0,0,0,2-1.12c.14,7.32-2.65,22.33-27.85,21.88-33.33-.54-46.18-13.93-68.46-15.59S51.48,57.19,43.13,69.18c0,0,10.6-3.14,18.55,8.18,0,0,12.13-11.46,30-12.94s83.6,20.17,100.26,3.32C191.78,67.79,202.79,59.25,199.33,45Zm-12.67-13a4,4,0,0,1,3.14-1.48,3.05,3.05,0,0,1,2.07.67,2.31,2.31,0,0,1,.18,3.33c-.05.09-.14.13-.18.18a5.48,5.48,0,0,1-2.43,1,26.22,26.22,0,0,1-4.26.32,7.27,7.27,0,0,1,1.48-4Z"/></svg>