<svg id="Layer_1" data-name="Layer 1" xmlns="http://www.w3.org/2000/svg" viewBox="0 0 445.2 172.3"><defs><style>.cls-1{fill:#fff;}</style></defs><path class="cls-1" d="M33.58,0S-5.73,28.14.72,73.42s33.2,64.61,71.56,66.7,75.09-36.38,67.37-82.62c0,0-1.74-14.19-13.64-30.46l-.81,8.77s9.69,9.95,9.57,34.29-24.12,53.45-62.12,46.45S19.4,68,49.18,39.27c0,0,24.58-21.32,57,.22L130.2,0Z"/><path class="cls-1" d="M166.72,106.43h-20.4V43.84L141.15,43V34.52H156.1c2.1,0,3.53.37,4.3,1.11s1.15,2.12,1.15,4.15V97.1l5.17.83Z"/><path class="cls-1" d="M219.7,97.93v8.5H204.1l-1.94-4A25.25,25.25,0,0,1,195,106.3a25,25,0,0,1-8.31,1.39q-10.35,0-16.66-6.56T163.67,83q0-11.44,6.88-18.41t17.49-7a25.91,25.91,0,0,1,6.14.73,18.07,18.07,0,0,1,5.12,2V43.84L194.13,43V34.52h15q3.13,0,4.29,1.11c.77.74,1.15,2.12,1.15,4.15V97.1ZM199.3,71.15a14.56,14.56,0,0,0-4-2,13.9,13.9,0,0,0-4.52-.78q-5.53,0-8.49,3.76T179.37,82.7q0,6.7,2.95,10.46t8.49,3.76a14.18,14.18,0,0,0,4.43-.73,15.82,15.82,0,0,0,4.06-2Z"/><path class="cls-1" d="M236.87,89.35a38,38,0,0,0,9.83,6,26.8,26.8,0,0,0,10.11,2.08c3.75,0,6.62-.73,8.59-2.18a7.28,7.28,0,0,0,3-6.19,8,8,0,0,0-3-6.06q-2.91-2.62-13.43-6.23T237.1,68.41a16.4,16.4,0,0,1-4.38-11.63A16,16,0,0,1,240,42.88q7.25-5,20.36-5a53.24,53.24,0,0,1,11.86,1.39A54.12,54.12,0,0,1,283.3,43l-6.81,11.88A24.43,24.43,0,0,0,268.94,50a22.28,22.28,0,0,0-8.84-1.89q-5.06,0-7.91,2a6.63,6.63,0,0,0-2.86,5.7,8.32,8.32,0,0,0,3.18,6.51q3.18,2.73,13.9,6.42T281.24,77a15.93,15.93,0,0,1,4.09,11,16.84,16.84,0,0,1-7.61,14.49q-7.62,5.36-21.37,5.35a51.46,51.46,0,0,1-14.12-2,36.68,36.68,0,0,1-11.73-5.43Z"/><path class="cls-1" d="M293.83,126c-2.1,0-3.53-.37-4.3-1.11s-1.15-2.13-1.15-4.16V68.21l-5.17-.83V58.89h15.6l1.94,4a24.74,24.74,0,0,1,15.51-5.26q10.33,0,16.66,6.55t6.32,18.18q0,11.46-6.88,18.42t-17.49,7A22.16,22.16,0,0,1,303.61,105v11.72l5.17.83V126Zm9.78-31.83a15,15,0,0,0,8.49,2.75q5.53,0,8.49-3.76t3-10.55q0-6.69-3-10.45a10.23,10.23,0,0,0-8.49-3.76,14.6,14.6,0,0,0-8.49,2.75Z"/><path class="cls-1" d="M360.84,106.43h-20.4V68.21l-5.17-.83V58.89h15c2.1,0,3.53.37,4.3,1.11s1.15,2.12,1.15,4.15V97.1l5.17.83Z"/><path class="cls-1" d="M402.84,99.92a22.44,22.44,0,0,1-8.63,5.69A30.69,30.69,0,0,1,383,107.72q-11.91,0-18.55-6.51T357.79,83q0-11.62,7.34-18.51t19.62-6.87a40.86,40.86,0,0,1,8.95,1,31.07,31.07,0,0,1,7.66,2.66l-6.74,11.56a12.25,12.25,0,0,0-4.75-3.42,14.85,14.85,0,0,0-5.87-1.3,9.1,9.1,0,0,0-7.76,3.76q-2.76,3.77-2.77,10.82t3.1,10.83q3.09,3.66,9.18,3.67a18.16,18.16,0,0,0,6.51-1.3,21.55,21.55,0,0,0,6.14-3.6Z"/><path class="cls-1" d="M361.21,39.59c1-.09,2.86-1.85,2.23-3.63a2.91,2.91,0,0,0-3.19-2.29c-1.66,0-1.78.1-2.23-.92s-1.23-2.4-2.22-2.36a3.09,3.09,0,0,0-3.46,2.67.78.78,0,0,0,0,.16c-.4,2.81-1.93,3.53-2.94,3.53-.63-.36-1.68-1.15-1.48-2.23.29-1.52,1.52-4.4-.2-5.56s-3.17-.89-4.6.5a.82.82,0,0,1-1.16.06.9.9,0,0,1-.15-.19c-.6-.85-3-1.56-4.26-.12a2.92,2.92,0,0,0-.4,3.91c.81,1.45,1,1.49.32,2.39s-1.46,2.27-.93,3.1a3.1,3.1,0,0,0,4.06,1.66l.13-.06c3-1.19,4.35.18,4.68,1.1a2.16,2.16,0,0,1-1.19,2.08c-1.45.51-4.56.88-4.71,3s.82,3.18,2.73,3.73a.81.81,0,0,1,.63,1,.75.75,0,0,1-.09.25c-.43.94.17,3.41,2,3.75a2.91,2.91,0,0,0,3.58-1.61c.85-1.43.8-1.59,1.92-1.48s2.69.14,3.15-.74a3.09,3.09,0,0,0-.58-4.33l-.14-.1c-2.36-1.85-2.06-3.63-1.49-4.45a2.21,2.21,0,0,1,2.42,0c1.17,1,3.05,3.52,4.92,2.61s2.35-2.31,1.86-4.24a.81.81,0,0,1,.81-1.14Zm7.06-24.29.12-.19.11.2h-.23Z"/><path class="cls-1" d="M443.71,100.14h0V100a61.72,61.72,0,0,0-2-6.66,10.7,10.7,0,0,0-.41-1.07l-.13.1a29.57,29.57,0,0,1-7.55,3.8,26.18,26.18,0,0,1-8.14,1.27,14.65,14.65,0,0,1-8.2-2A11.13,11.13,0,0,1,412.81,89a74.75,74.75,0,0,0,17.77-1.75q7-1.75,10.51-5.31a12.49,12.49,0,0,0,3.47-9.09,13,13,0,0,0-5.82-11q-5.81-4.24-15.23-4.24-12,0-19.2,7t-7.2,18.6q0,11.81,6.74,18.18t18.83,6.37a34.15,34.15,0,0,0,12.56-2.36,29.33,29.33,0,0,0,4.5-2.47c.3,16.34-5.94,49.67-62,48.74-74.22-1.24-102.75-31-152.37-34.73s-111,10.48-129.62,37.18c0,0,23.62-7,41.27,18.22,0,0,27-25.5,66.72-28.81S389.82,188.4,426.94,151C426.91,150.92,451.41,131.89,443.71,100.14Zm-28.21-29a8.77,8.77,0,0,1,7-3.28,6.89,6.89,0,0,1,4.64,1.5,5.27,5.27,0,0,1,.44,7.44,4.57,4.57,0,0,1-.44.44,11.51,11.51,0,0,1-5.43,2.15,56.12,56.12,0,0,1-9.51.66,15.87,15.87,0,0,1,3.3-8.93Z"/></svg>