<svg id="Layer_1" data-name="Layer 1" xmlns="http://www.w3.org/2000/svg" xmlns:xlink="http://www.w3.org/1999/xlink" viewBox="0 0 806.52 806.52"><defs><style>.cls-1{opacity:0.33;}.cls-2,.cls-6{fill:#0f6b37;}.cls-2{stroke:#fff;stroke-miterlimit:10;stroke-width:15px;}.cls-3{fill:#fff;}.cls-4{fill:#96c53f;}.cls-5{fill:#94c53f;}</style></defs><image class="cls-1" width="1280" height="1280" transform="scale(0.63)" xlink:href="label_white.jpeg"/><rect class="cls-2" x="24.84" y="22.37" width="756.89" height="756.89"/><path class="cls-3" d="M278.16,509.17s36.52-34.53,90.35-39,252,60.76,302.25,10.06c0,0,38.69-30,19.39-79.38l-3.2,2.42s17.7,79.59-82.81,77.92-139.15-42-206.34-47S247.47,448.34,222.28,484.5C222.28,484.5,254.25,475,278.16,509.17Z"/><path class="cls-3" d="M138.12,275.85S84.89,314,93.62,375.27s45,87.49,96.92,90.33,101.68-49.27,91.23-111.88c0,0-2.37-19.23-18.48-41.26l-1.1,11.88s13.12,13.48,13,46.44S242.48,443.16,191,433.67,118.92,368,159.25,329c0,0,33.28-28.87,77.2.3L269,275.85Z"/><path class="cls-3" d="M318.42,420H290.79V335.22l-7-1.13v-11.5H304q4.24,0,5.82,1.5t1.56,5.63v77.62l7,1.13Z"/><path class="cls-3" d="M390.17,408.47V420H369l-2.62-5.38a34.47,34.47,0,0,1-9.75,5.25,34,34,0,0,1-11.25,1.88q-14,0-22.57-8.88t-8.56-24.62q0-15.5,9.31-24.94t23.69-9.44a34.94,34.94,0,0,1,8.31,1,24.94,24.94,0,0,1,6.94,2.75V335.22l-7-1.13v-11.5h20.25q4.24,0,5.81,1.5t1.57,5.63v77.62Zm-27.63-36.28a20.72,20.72,0,0,0-5.37-2.67,19.22,19.22,0,0,0-6.13-1q-7.5,0-11.5,5.09t-4,14.28q0,9.07,4,14.16t11.5,5.09a19,19,0,0,0,6-1,21.25,21.25,0,0,0,5.5-2.73Z"/><path class="cls-3" d="M413.42,396.84a51.31,51.31,0,0,0,13.31,8.07,36.33,36.33,0,0,0,13.69,2.81q7.62,0,11.62-3a9.79,9.79,0,0,0,4-8.38,10.78,10.78,0,0,0-3.94-8.19q-3.93-3.56-18.18-8.44t-20.19-11.26a22.24,22.24,0,0,1-5.94-15.76,21.68,21.68,0,0,1,9.81-18.82q9.82-6.81,27.57-6.82A71.26,71.26,0,0,1,461.23,329a73.26,73.26,0,0,1,15.06,5.15l-9.22,16.09a33.42,33.42,0,0,0-10.22-6.69,30.2,30.2,0,0,0-12-2.56q-6.86,0-10.72,2.78a9,9,0,0,0-3.87,7.72,11.26,11.26,0,0,0,4.3,8.81Q438.9,364,453.42,369t20.07,11.19A21.57,21.57,0,0,1,479,395.09q0,12.38-10.31,19.63T439.79,422a69.58,69.58,0,0,1-19.12-2.7,49.83,49.83,0,0,1-15.88-7.35Z"/><path class="cls-3" d="M490.54,446.47q-4.25,0-5.81-1.5t-1.56-5.63V368.22l-7-1.13v-11.5h21.12l2.63,5.38a33.49,33.49,0,0,1,21-7.13q14,0,22.56,8.88T552,387.34q0,15.51-9.31,24.94T519,421.72A30,30,0,0,1,503.79,418v15.87l7,1.13v11.5Zm13.25-43.1a20.23,20.23,0,0,0,11.5,3.72q7.5,0,11.5-5.09t4-14.28q0-9.06-4-14.16t-11.5-5.09a19.84,19.84,0,0,0-11.5,3.72Z"/><path class="cls-3" d="M581.29,420H553.67V368.22l-7-1.13v-11.5h20.25q4.25,0,5.81,1.5t1.56,5.63v44.62l7,1.13Zm-7-71.38H553.67V330.34h20.62Z"/><path class="cls-3" d="M638.17,411.16a30.26,30.26,0,0,1-11.69,7.7,41.51,41.51,0,0,1-15.19,2.86q-16.12,0-25.12-8.81t-9-24.69q0-15.75,9.93-25.06t26.57-9.32a55.55,55.55,0,0,1,12.12,1.37,42.15,42.15,0,0,1,10.38,3.6L627,374.47a16.74,16.74,0,0,0-6.44-4.63,20.08,20.08,0,0,0-7.93-1.75,12.28,12.28,0,0,0-10.5,5.1q-3.75,5.1-3.75,14.65t4.18,14.66q4.18,5,12.44,5a24.48,24.48,0,0,0,8.81-1.75,29.27,29.27,0,0,0,8.32-4.88Z"/><path class="cls-3" d="M695.41,410A37.55,37.55,0,0,1,682,418.53a46.07,46.07,0,0,1-17,3.19q-16.38,0-25.5-8.63t-9.13-24.62q0-15.75,9.75-25.19t26-9.44q12.75,0,20.63,5.75t7.87,14.88a16.86,16.86,0,0,1-4.7,12.31q-4.69,4.82-14.23,7.19t-24.07,2.37a15.09,15.09,0,0,0,6,8.72q4.2,2.79,11.09,2.78a35.45,35.45,0,0,0,11-1.71,40.3,40.3,0,0,0,10.41-5.29Zm-30.67-42.25a11.88,11.88,0,0,0-9.43,4.44q-3.76,4.44-4.52,12.06a75.88,75.88,0,0,0,12.88-.89c3.31-.59,5.76-1.57,7.35-2.92a7.14,7.14,0,0,0,0-10.66A9.37,9.37,0,0,0,664.74,367.72Z"/><path class="cls-3" d="M614.76,294.78c1.88-.62,4.52-4.71,2.57-7.74s-3.85-3.55-7-2.87-3.27,1-4.57-.74-3.34-3.93-5.16-3.41a5.92,5.92,0,0,0-5.23,6.8c.48,5.41-2,7.42-3.94,7.86-1.31-.4-3.63-1.39-3.72-3.5-.13-2.95.9-8.85-2.82-10.26s-6.29-.26-8.34,2.95a1.58,1.58,0,0,1-2.51.33c-1.48-1.32-6.34-1.57-8,1.64s-1.15,5.12,1,7.46,2.47,2.34,1.65,4.32-1.73,4.86-.37,6.18a5.91,5.91,0,0,0,8.5,1.13c5-3.52,8.17-1.57,9.19,0,.23,1.39.25,3.4-1.29,4.38-2.49,1.59-8.12,3.65-7.48,7.58s2.92,5.58,6.73,5.75a1.56,1.56,0,0,1,1.53,2c-.4,2,1.82,6.28,5.42,6.1s5-1.56,6-4.59.79-3.31,2.92-3.58,5.07-.93,5.53-2.77a5.91,5.91,0,0,0-3.27-7.93c-5.21-2.41-5.44-5.85-4.73-7.64,1.08-.91,2.84-2,4.48-1.11,2.63,1.36,7.22,5.2,10.31,2.68s3.36-5.31,1.61-8.7A1.57,1.57,0,0,1,614.76,294.78Zm-23.41,1.79.17-.27.14.28h-.31Z"/><path class="cls-4" d="M144,545.67h15.23c9.75,0,17.61,3.49,17.61,14.26,0,10.41-8,15-17.34,15h-5.48v15H144ZM158.94,567c5.51,0,8.11-2.46,8.11-7.07s-3-6.3-8.39-6.3h-4.61V567Z"/><path class="cls-4" d="M193.35,569.45V545.67h10v24.81c0,8.67,2.74,11.67,7.7,11.67s7.85-3,7.85-11.67V545.67h9.66v23.78c0,14.88-6.05,21.35-17.51,21.35S193.35,584.33,193.35,569.45Z"/><path class="cls-4" d="M247.87,545.67h16c9.4,0,17.1,3.27,17.1,13.8,0,10.19-7.7,14.57-17.1,14.57h-5.94v16h-10ZM263,566.08c5.27,0,8.1-2.25,8.1-6.61s-2.83-5.84-8.1-5.84h-5.12v12.45Zm-1,5.32,6.93-6.41,14.15,25H271.86Z"/><path class="cls-4" d="M298.59,545.67h27.77v8.4H308.61V563h15.11v8.4H308.61v10.21H327V590H298.59Z"/><path class="cls-4" d="M365.45,567.64c0-14.48,8.17-22.78,20.13-22.78s20.12,8.35,20.12,22.78-8.17,23.16-20.12,23.16S365.45,582.12,365.45,567.64Zm30,0c0-8.89-3.82-14.13-9.86-14.13s-9.86,5.24-9.86,14.13c0,9.44,3.81,15,9.86,15S395.44,577.08,395.44,567.64Zm-14.75,22,10.18-1c1.68,4.16,6.24,5.7,10.45,5.7a15.76,15.76,0,0,0,4.94-.77l1.77,7.3a18.21,18.21,0,0,1-7.85,1.47C390.43,602.34,383.72,597,380.69,589.65Z"/><path class="cls-4" d="M422.85,569.45V545.67h10v24.81c0,8.67,2.74,11.67,7.69,11.67s7.86-3,7.86-11.67V545.67h9.66v23.78c0,14.88-6.05,21.35-17.52,21.35S422.85,584.33,422.85,569.45Z"/><path class="cls-4" d="M484.79,545.67h12L510.7,590H500.1l-5.8-22.45c-1.23-4.43-2.42-9.67-3.6-14.29h-.27c-1.07,4.68-2.26,9.86-3.49,14.29L481.12,590H470.88Zm-4.74,26h21.33v7.79H480.05Z"/><path class="cls-4" d="M524,545.67h10v35.91h17.49V590H524Z"/><path class="cls-4" d="M568.28,545.67h10V590h-10Z"/><path class="cls-4" d="M606.46,554.07H594.27v-8.4h34.41v8.4h-12.2V590h-10Z"/><path class="cls-4" d="M651,574.18l-13.35-28.51h10.71l4,10.18c1.18,3.32,2.34,6.39,3.61,9.83h.27c1.26-3.44,2.53-6.51,3.74-9.83l4-10.18H674.4l-13.35,28.51V590H651Z"/><path class="cls-5" d="M269.54,612.51h3.53v12.68h6.18v3h-9.71Z"/><path class="cls-5" d="M283.56,620.27c0-5.11,2.88-8,7.1-8s7.11,2.95,7.11,8-2.89,8.17-7.11,8.17S283.56,625.38,283.56,620.27Zm10.58,0c0-3.14-1.35-5-3.48-5s-3.48,1.85-3.48,5,1.35,5.12,3.48,5.12S294.14,623.4,294.14,620.27Z"/><path class="cls-5" d="M303.9,612.51h3.63l4.08,7.78,1.55,3.44h.09c-.16-1.65-.45-3.85-.45-5.69v-5.53h3.37v15.65h-3.62l-4.09-7.8-1.54-3.42h-.1c.17,1.73.45,3.82.45,5.67v5.55H303.9Z"/><path class="cls-5" d="M322.31,620.43c0-5.19,3.45-8.2,7.63-8.2a6.77,6.77,0,0,1,4.94,2L333,616.52a4.07,4.07,0,0,0-2.95-1.24c-2.41,0-4.12,1.89-4.12,5s1.46,5.08,4.4,5.08a2.83,2.83,0,0,0,1.66-.46v-2.71h-2.59v-2.88h5.73v7.21a7.53,7.53,0,0,1-5.16,1.89C325.67,628.44,322.31,625.69,322.31,620.43Z"/><path class="cls-5" d="M349.55,612.51h3.54v12.68h6.17v3h-9.71Z"/><path class="cls-5" d="M367.94,612.51h4.23l4.92,15.65h-3.75l-2-7.93c-.44-1.56-.86-3.41-1.27-5h-.1c-.38,1.65-.8,3.48-1.23,5l-2.06,7.93H363Zm-1.67,9.17h7.52v2.75h-7.52Z"/><path class="cls-5" d="M381,626.18l2-2.42a6.24,6.24,0,0,0,3.85,1.63c1.47,0,2.2-.58,2.2-1.51s-.89-1.3-2.26-1.86l-2-.87a4.57,4.57,0,0,1-3.16-4.26c0-2.59,2.32-4.66,5.57-4.66a7.22,7.22,0,0,1,5,2l-1.78,2.22a5.09,5.09,0,0,0-3.25-1.22c-1.22,0-2,.51-2,1.4s1,1.31,2.39,1.85l2,.81a4.32,4.32,0,0,1,3.1,4.26c0,2.59-2.16,4.84-5.89,4.84A8.63,8.63,0,0,1,381,626.18Z"/><path class="cls-5" d="M401.09,615.48h-4.31v-3h12.15v3h-4.3v12.68h-3.54Z"/><path class="cls-5" d="M414.57,612.51h3.53v15.65h-3.53Z"/><path class="cls-5" d="M425,612.51h3.63l4.08,7.78,1.54,3.44h.1c-.17-1.65-.45-3.85-.45-5.69v-5.53h3.37v15.65h-3.63l-4.08-7.8L428,616.94h-.1c.17,1.73.45,3.82.45,5.67v5.55H425Z"/><path class="cls-5" d="M443.39,620.43c0-5.19,3.45-8.2,7.63-8.2a6.73,6.73,0,0,1,4.93,2l-1.86,2.26a4.07,4.07,0,0,0-2.95-1.24c-2.41,0-4.12,1.89-4.12,5s1.45,5.08,4.4,5.08a2.83,2.83,0,0,0,1.66-.46v-2.71h-2.6v-2.88h5.74v7.21a7.53,7.53,0,0,1-5.16,1.89C446.75,628.44,443.39,625.69,443.39,620.43Z"/><path class="cls-5" d="M473.69,615.48h-4.31v-3h12.15v3h-4.3v12.68h-3.54Z"/><path class="cls-5" d="M489.12,612.51h4.23l4.91,15.65h-3.74l-2-7.93c-.43-1.56-.85-3.41-1.27-5h-.1c-.37,1.65-.79,3.48-1.23,5l-2.05,7.93H484.2Zm-1.68,9.17H495v2.75h-7.53Z"/><path class="cls-5" d="M502.14,626.18l2-2.42a6.19,6.19,0,0,0,3.84,1.63c1.48,0,2.2-.58,2.2-1.51s-.89-1.3-2.26-1.86l-2-.87a4.56,4.56,0,0,1-3.15-4.26c0-2.59,2.31-4.66,5.57-4.66a7.23,7.23,0,0,1,5,2l-1.79,2.22a5.08,5.08,0,0,0-3.24-1.22c-1.22,0-2,.51-2,1.4s1,1.31,2.39,1.85l2,.81a4.33,4.33,0,0,1,3.11,4.26c0,2.59-2.17,4.84-5.9,4.84A8.61,8.61,0,0,1,502.14,626.18Z"/><path class="cls-5" d="M522.27,615.48H518v-3h12.15v3H525.8v12.68h-3.53Z"/><path class="cls-5" d="M535.74,612.51h9.8v3h-6.26v3.14h5.33v3h-5.33v3.6h6.5v3h-10Z"/><path class="cls-5" d="M440.09,206.57s3.18,6.39,2.37,18.55l28.27-2.66s-11.93-23.4-11.36-34.17l-18.06,15.05.08-4.14h1.86l12.11-10s-4.72-9.58-5.14-16.07l-9.1-1.26.21-2.84s4.57-.41,6.7.61-4.24-11.32-4.17-12-2.28-.78-2.28-.78l-.29-6.2s-1.71-1.28-1.85-.49-.21,6.55-.21,6.55l-3.06,1.06-2.92,9.9a39.81,39.81,0,0,1,4.91-.71v2.63s-4.63.43-4.91,1.29S435.17,194,435.17,194s-8.47-3.5-9.75-3.72.71,10.61.71,10.61,6.62-3.91,10.89-3.84l.22,4.43s-6.5.21-11,2.9c0,0,3,17.09,5.72,20l3,.14s-.64-11.44,2.12-16.1l.21,18.22h-6.08s-10-11.26-8.26-33.61c0,0-7-1.39-7.91-.62v-6.37s12.41.68,17.67,3.91c0,0-1.72-28.82-4.63-34.27,0,0-13.35-1.09-14.07-1.09v-3s9.44-.09,12.89,1.91c0,0-2.54-10.53-6.08-14.26,0,0-4.51-.66-6.87-.72h0v-7s5.23,3.14,9.21,3.65,16.65.3,16.65.3,2-.24,3.53,3.08,3.69,3.4,3.69,3.4,4.64-.22,6,1c0,0-.37-1.77-3.54-2.43s-4.57.44-7.29-4.64-14.15,1.18-22.92-3.32l-5.7-3.3-.72.23v9.3a5.26,5.26,0,0,1-2.07.54L404,154.46a4.32,4.32,0,0,0-.91.47l-3.27,14.12,1.79-10.36s-5.3.31-6.85,2-3.2,8.05-3.2,8.05,3.22,16.81,4.78,18.78l1.76-9.54s-2,11.52-1.35,12.55,8.63-4.55,13.9-3.32l.34,6-12.93.83-1.59,1.31-.29,1.88-3.63,12.19,2.9,13.79s12.05-2.76,14.51-1.6l-.14,6.39-29.89.58-.29-9s5.51-1.45,14.22,7.4c0,0-5.37-20.75-5.37-26.26a55.59,55.59,0,0,0-10.89-1.6l-.14-6s9.72.58,16.11,4.5c0,0,1.16-1,1.16-4.5s-7.26-17-7-30.47c0,0-1.74-2-10.3-2v-2.91s8.42.15,10,2c0,0-2.32-9.58-3.77-12.77,0,0-.73-2.18-3.92-2.33s-5.08-.29-5.08-.29l-3.34,1.17-3.91,12.76s6.89-2.64,8.94-1.59v2.64l-9,1.21-8,35s11.26-5,15.93-4l-.17,4.85-13.86,1.9-6.23,24.94-12.64-5.72s5-5.54,11.6-4.15l2.25-3.29S354.93,199,356,194.54s7.43-31.66,7.43-31.66l-.1-1.1-2.49.8-1.1.3-1.19,2.4-47,38.12-2.23-1.09s-1.42-.5-.27.8c0,0,36.19,18.48,40.55,22.58a89.34,89.34,0,0,1,8.73,10s43.88,3.63,53.94,2.06S444,236,444,236s3.55-7.3,16-7.7v-3.75l-19.54,2ZM405.62,154a20.81,20.81,0,0,1,5.07-1.3l.06,1A24.67,24.67,0,0,0,405.62,154Zm-88.45,51.92s5.32-6.47,17.68-3.81l6.36-6.12s1.92-15.08,18-25.16c0,0-6,11.94-6,14.84s-26.63,25-26.63,25Zm11.6,5.52c7.12-5.31,17.16-2.27,17.16-2.27l2-3a17.93,17.93,0,0,1,4-15.45s-4.08,9.07-2.5,6.77,5.86-3.23,5.86-3.23l-.31,2.41-14,21.59Zm46.43,17-16.56-1.52s3.24-6.6,16.56-7.25Zm39.86,0v-6.67c8-.11,13.9,6.67,13.9,6.67Z"/><path class="cls-6" d="M690.15,400.84s3.23,8.78,3.4,10.77c0,0,1.61-.48,1.86-1.69S690.15,400.84,690.15,400.84Z"/></svg>