<svg id="Layer_1" data-name="Layer 1" xmlns="http://www.w3.org/2000/svg" viewBox="0 0 100 38.68"><defs><style>.cls-1{fill:#fff;}</style></defs><path class="cls-1" d="M7.55,0S-1.28,6.31.16,16.49,7.62,31,16.24,31.47s16.87-8.18,15.14-18.55a16.17,16.17,0,0,0-3.05-6.86l-.18,2s2.17,2.25,2.15,7.71-5.41,12-13.95,10.42-12-10.9-5.3-17.34c0,0,5.53-4.79,12.81,0L29.25,0Z"/><path class="cls-1" d="M37.44,23.9H32.86V9.84l-1.17-.18V7.75h3.37A1.45,1.45,0,0,1,36,8c.18.15.25.47.25.94V21.81l1.16.18V23.9Z"/><path class="cls-1" d="M49.35,22V23.9h-3.5l-.43-.9a5.63,5.63,0,0,1-3.48,1.19,4.94,4.94,0,0,1-3.75-1.48,5.62,5.62,0,0,1-1.42-4.07,5.62,5.62,0,0,1,1.55-4.13,5.34,5.34,0,0,1,3.93-1.57,5.24,5.24,0,0,1,1.37.16,3.91,3.91,0,0,1,1.15.44V9.84L43.6,9.66V7.75H47a1.44,1.44,0,0,1,1,.25c.18.15.25.47.25.94V21.81Zm-4.58-6a3.79,3.79,0,0,0-.9-.45,3.31,3.31,0,0,0-1-.18,2.32,2.32,0,0,0-1.91.86,3.71,3.71,0,0,0-.65,2.38A3.81,3.81,0,0,0,41,21a2.31,2.31,0,0,0,1.91.85,3.72,3.72,0,0,0,1-.16,3.56,3.56,0,0,0,.92-.45Z"/><path class="cls-1" d="M53.21,20.06a9.3,9.3,0,0,0,2.2,1.35,6.1,6.1,0,0,0,2.27.47,3.09,3.09,0,0,0,1.93-.5A1.62,1.62,0,0,0,60.29,20a1.73,1.73,0,0,0-.68-1.37,10.13,10.13,0,0,0-3-1.39,8,8,0,0,1-3.34-1.89,3.76,3.76,0,0,1-1-2.6,3.56,3.56,0,0,1,1.64-3.13,8,8,0,0,1,4.58-1.12,12,12,0,0,1,2.67.31,12.46,12.46,0,0,1,2.5.84l-1.53,2.67a6,6,0,0,0-1.68-1.1,5.08,5.08,0,0,0-2-.43,3.14,3.14,0,0,0-1.78.45A1.52,1.52,0,0,0,56,12.51,1.89,1.89,0,0,0,56.76,14a10.66,10.66,0,0,0,3.12,1.44,8,8,0,0,1,3.33,1.86,3.61,3.61,0,0,1,.92,2.47A3.81,3.81,0,0,1,62.42,23a8,8,0,0,1-4.8,1.19,11.67,11.67,0,0,1-3.17-.45,8.08,8.08,0,0,1-2.63-1.21Z"/><path class="cls-1" d="M66,28.3a1.44,1.44,0,0,1-1-.25c-.18-.15-.25-.47-.25-.94V15.32l-1.17-.18V13.23h3.51l.42.9A5.58,5.58,0,0,1,71,12.94a5,5,0,0,1,3.76,1.48,5.68,5.68,0,0,1,1.41,4.09,5.61,5.61,0,0,1-1.55,4.13,5.33,5.33,0,0,1-3.93,1.57,5,5,0,0,1-2.54-.63v2.63l1.17.18v1.89H66Zm2.2-7.14a3.46,3.46,0,0,0,1.91.63A2.29,2.29,0,0,0,72,20.93a3.69,3.69,0,0,0,.68-2.38A3.59,3.59,0,0,0,72,16.22a2.32,2.32,0,0,0-1.91-.86,3.36,3.36,0,0,0-1.91.63Z"/><path class="cls-1" d="M81,23.9H76.46V15.32l-1.17-.18V13.23h3.37a1.47,1.47,0,0,1,1,.25c.18.15.24.47.24.94v7.39L81,22Z"/><path class="cls-1" d="M90.48,22.44a5.1,5.1,0,0,1-1.94,1.28,7,7,0,0,1-2.51.47,5.7,5.7,0,0,1-4.16-1.46,5.57,5.57,0,0,1-1.5-4.09A5.42,5.42,0,0,1,82,14.49a6.13,6.13,0,0,1,4.4-1.55,9.26,9.26,0,0,1,2,.22,6.05,6.05,0,0,1,1.73.61l-1.5,2.6a2.69,2.69,0,0,0-1.08-.76,3.27,3.27,0,0,0-1.33-.29,2.08,2.08,0,0,0-1.75.85,4.14,4.14,0,0,0-.63,2.43,3.68,3.68,0,0,0,.7,2.42,2.58,2.58,0,0,0,2.07.84,4.19,4.19,0,0,0,1.46-.3,5.27,5.27,0,0,0,1.37-.81Z"/><path class="cls-1" d="M81.13,8.89a.66.66,0,0,0,.5-.8.65.65,0,0,0-.72-.52c-.38,0-.41,0-.5-.2s-.27-.54-.49-.54a.72.72,0,0,0-.79.6v.05c-.09.63-.42.79-.65.79s-.38-.27-.33-.5.33-1-.05-1.26a.71.71,0,0,0-1,.12.21.21,0,0,1-.27,0l0-.05a.66.66,0,0,0-1,0,.65.65,0,0,0-.09.88c.18.33.22.33.06.54s-.33.51-.2.69a.71.71,0,0,0,.92.38s0,0,0,0c.67-.27,1,0,1,.25a.47.47,0,0,1-.27.47c-.34.11-1,.2-1.05.67a.72.72,0,0,0,.6.84.19.19,0,0,1,.14.22s0,.05,0,.05a.72.72,0,0,0,.45.85.65.65,0,0,0,.81-.36c.2-.32.18-.36.43-.34s.61,0,.7-.15a.69.69,0,0,0-.14-1l0,0c-.54-.41-.47-.81-.34-1a.45.45,0,0,1,.54,0c.27.22.67.78,1.1.58a.72.72,0,0,0,.43-.94A.19.19,0,0,1,81,8.94C81.09,8.89,81.11,8.89,81.13,8.89Zm1.6-5.45,0,0,0,0Z"/><path class="cls-1" d="M99.66,22.48h0v0a15.25,15.25,0,0,0-.45-1.5,2.5,2.5,0,0,0-.09-.25l0,0a7.21,7.21,0,0,1-1.68.86,5.72,5.72,0,0,1-1.82.29,3.14,3.14,0,0,1-1.84-.45,2.44,2.44,0,0,1-1-1.46,16.88,16.88,0,0,0,4-.41,4.81,4.81,0,0,0,2.35-1.19,2.85,2.85,0,0,0,.79-2,2.88,2.88,0,0,0-1.3-2.47,5.7,5.7,0,0,0-3.42-.94,5.88,5.88,0,0,0-4.31,1.57,5.57,5.57,0,0,0-1.62,4.18,5.34,5.34,0,0,0,1.51,4.08A5.93,5.93,0,0,0,95,24.19a7.61,7.61,0,0,0,2.83-.54,5.22,5.22,0,0,0,1-.56C98.9,26.75,97.51,34.25,84.91,34c-16.67-.27-23.09-7-34.24-7.79s-24.93,2.35-29.11,8.35c0,0,5.31-1.57,9.28,4.09a27.11,27.11,0,0,1,15-6.47c8.92-.74,41.8,10.09,50.14,1.66A11.59,11.59,0,0,0,99.66,22.48ZM93.33,16a2,2,0,0,1,1.57-.74,1.53,1.53,0,0,1,1,.34A1.15,1.15,0,0,1,96,17.23a.26.26,0,0,1-.09.09,2.68,2.68,0,0,1-1.21.49,13.61,13.61,0,0,1-2.13.16,3.58,3.58,0,0,1,.74-2Z"/></svg>